<svg xmlns="http://www.w3.org/2000/svg" version="1.1" xmlns:xlink="http://www.w3.org/1999/xlink" xmlns:svgjs="http://svgjs.dev/svgjs" width="1440" height="560" preserveAspectRatio="none" viewBox="0 0 1440 560"><g mask="url(&quot;#SvgjsMask1044&quot;)" fill="none"><rect width="1440" height="560" x="0" y="0" fill="rgba(21, 67, 96, 1)"></rect><path d="M0,651.941C121.171,650.981,166.581,483.334,268.844,418.33C371.898,352.823,539.847,380.564,596.829,272.562C653.208,165.702,549.707,42.994,529.738,-76.165C510.378,-191.687,551.475,-323.261,481.265,-417.019C410.291,-511.797,278.73,-528.992,165.273,-562.869C51.307,-596.898,-65.269,-644.207,-180.464,-614.603C-297.156,-584.614,-382.749,-491.054,-463.193,-401.359C-544.832,-310.331,-646.55,-215.447,-648.102,-93.183C-649.637,27.767,-542.336,117.407,-471.019,215.107C-413.289,294.194,-343.389,356.028,-271.596,422.611C-182.923,504.849,-120.934,652.899,0,651.941" fill="#0e2c3e"></path><path d="M1440 1105.567C1541.431 1130.342 1645.093 1072.225 1733.962 1017.414 1824 961.8820000000001 1899.8319999999999 886.1659999999999 1948.237 792.104 1998.1509999999998 695.109 2054.3360000000002 578.194 2011.644 477.81 1968.3809999999999 376.084 1822.97 372.88300000000004 1739.248 300.7 1672.603 243.24 1649.245 147.94099999999997 1574.74 101.11900000000003 1485.693 45.158000000000015 1378.4-22.716999999999985 1278.92 11.410999999999945 1178.99 45.692999999999984 1160.366 178.50099999999998 1098.839 264.383 1044.257 340.571 962.8489999999999 397.502 937.65 487.773 910.714 584.267 896.388 700.094 954.4169999999999 781.759 1012.239 863.133 1142.751 837.912 1225.804 893.296 1311.164 950.2180000000001 1340.3319999999999 1081.223 1440 1105.567" fill="#1c5a82"></path></g><defs><mask id="SvgjsMask1044"><rect width="1440" height="560" fill="#ffffff"></rect></mask></defs></svg>